<mxfile host="app.diagrams.net" agent="Mozilla/5.0 (Windows NT 10.0; Win64; x64) AppleWebKit/537.36 (KHTML, like Gecko) Chrome/131.0.0.0 Safari/537.36" version="26.0.3">
  <diagram name="PÃ¡gina-1" id="6xJJPAYxXG0_Wuqwu7s2">
    <mxGraphModel dx="1598" dy="1134" grid="1" gridSize="10" guides="1" tooltips="1" connect="1" arrows="1" fold="1" page="1" pageScale="1" pageWidth="1169" pageHeight="827" math="0" shadow="0">
      <root>
        <mxCell id="0" />
        <mxCell id="1" parent="0" />
        <mxCell id="LsekQW_vribpUlGZje28-14" value="CLIENTES" style="swimlane;fontStyle=0;childLayout=stackLayout;horizontal=1;startSize=26;horizontalStack=0;resizeParent=1;resizeParentMax=0;resizeLast=0;collapsible=1;marginBottom=0;align=center;fontSize=14;" vertex="1" parent="1">
          <mxGeometry x="50" y="100" width="230" height="186" as="geometry" />
        </mxCell>
        <mxCell id="LsekQW_vribpUlGZje28-15" value="&lt;b&gt;dni: texto (PK)&lt;/b&gt;" style="text;strokeColor=none;fillColor=none;spacingLeft=4;spacingRight=4;overflow=hidden;rotatable=0;points=[[0,0.5],[1,0.5]];portConstraint=eastwest;fontSize=12;whiteSpace=wrap;html=1;" vertex="1" parent="LsekQW_vribpUlGZje28-14">
          <mxGeometry y="26" width="230" height="30" as="geometry" />
        </mxCell>
        <mxCell id="LsekQW_vribpUlGZje28-18" value="" style="line;strokeWidth=1;rotatable=0;dashed=0;labelPosition=right;align=left;verticalAlign=middle;spacingTop=0;spacingLeft=6;points=[];portConstraint=eastwest;" vertex="1" parent="LsekQW_vribpUlGZje28-14">
          <mxGeometry y="56" width="230" height="10" as="geometry" />
        </mxCell>
        <mxCell id="LsekQW_vribpUlGZje28-16" value="nss: texto (UNQ, NN)" style="text;strokeColor=none;fillColor=none;spacingLeft=4;spacingRight=4;overflow=hidden;rotatable=0;points=[[0,0.5],[1,0.5]];portConstraint=eastwest;fontSize=12;whiteSpace=wrap;html=1;" vertex="1" parent="LsekQW_vribpUlGZje28-14">
          <mxGeometry y="66" width="230" height="30" as="geometry" />
        </mxCell>
        <mxCell id="LsekQW_vribpUlGZje28-17" value="nombre: texto (NN)" style="text;strokeColor=none;fillColor=none;spacingLeft=4;spacingRight=4;overflow=hidden;rotatable=0;points=[[0,0.5],[1,0.5]];portConstraint=eastwest;fontSize=12;whiteSpace=wrap;html=1;" vertex="1" parent="LsekQW_vribpUlGZje28-14">
          <mxGeometry y="96" width="230" height="30" as="geometry" />
        </mxCell>
        <mxCell id="LsekQW_vribpUlGZje28-19" value="apellidos: texto (NN)" style="text;strokeColor=none;fillColor=none;spacingLeft=4;spacingRight=4;overflow=hidden;rotatable=0;points=[[0,0.5],[1,0.5]];portConstraint=eastwest;fontSize=12;whiteSpace=wrap;html=1;" vertex="1" parent="LsekQW_vribpUlGZje28-14">
          <mxGeometry y="126" width="230" height="30" as="geometry" />
        </mxCell>
        <mxCell id="LsekQW_vribpUlGZje28-20" value="fecha_nacimiento: date (NN)" style="text;strokeColor=none;fillColor=none;spacingLeft=4;spacingRight=4;overflow=hidden;rotatable=0;points=[[0,0.5],[1,0.5]];portConstraint=eastwest;fontSize=12;whiteSpace=wrap;html=1;" vertex="1" parent="LsekQW_vribpUlGZje28-14">
          <mxGeometry y="156" width="230" height="30" as="geometry" />
        </mxCell>
        <mxCell id="LsekQW_vribpUlGZje28-21" value="RESERVAS" style="swimlane;fontStyle=0;childLayout=stackLayout;horizontal=1;startSize=26;horizontalStack=0;resizeParent=1;resizeParentMax=0;resizeLast=0;collapsible=1;marginBottom=0;align=center;fontSize=14;" vertex="1" parent="1">
          <mxGeometry x="355" y="100" width="230" height="186" as="geometry" />
        </mxCell>
        <mxCell id="LsekQW_vribpUlGZje28-22" value="&lt;b&gt;codigo: num (PK)&lt;/b&gt;" style="text;strokeColor=none;fillColor=none;spacingLeft=4;spacingRight=4;overflow=hidden;rotatable=0;points=[[0,0.5],[1,0.5]];portConstraint=eastwest;fontSize=12;whiteSpace=wrap;html=1;" vertex="1" parent="LsekQW_vribpUlGZje28-21">
          <mxGeometry y="26" width="230" height="30" as="geometry" />
        </mxCell>
        <mxCell id="LsekQW_vribpUlGZje28-23" value="" style="line;strokeWidth=1;rotatable=0;dashed=0;labelPosition=right;align=left;verticalAlign=middle;spacingTop=0;spacingLeft=6;points=[];portConstraint=eastwest;" vertex="1" parent="LsekQW_vribpUlGZje28-21">
          <mxGeometry y="56" width="230" height="10" as="geometry" />
        </mxCell>
        <mxCell id="LsekQW_vribpUlGZje28-24" value="precio: num (NN)" style="text;strokeColor=none;fillColor=none;spacingLeft=4;spacingRight=4;overflow=hidden;rotatable=0;points=[[0,0.5],[1,0.5]];portConstraint=eastwest;fontSize=12;whiteSpace=wrap;html=1;" vertex="1" parent="LsekQW_vribpUlGZje28-21">
          <mxGeometry y="66" width="230" height="30" as="geometry" />
        </mxCell>
        <mxCell id="LsekQW_vribpUlGZje28-25" value="fianza: num (NN)" style="text;strokeColor=none;fillColor=none;spacingLeft=4;spacingRight=4;overflow=hidden;rotatable=0;points=[[0,0.5],[1,0.5]];portConstraint=eastwest;fontSize=12;whiteSpace=wrap;html=1;" vertex="1" parent="LsekQW_vribpUlGZje28-21">
          <mxGeometry y="96" width="230" height="30" as="geometry" />
        </mxCell>
        <mxCell id="LsekQW_vribpUlGZje28-27" value="fecha: date (NN)" style="text;strokeColor=none;fillColor=none;spacingLeft=4;spacingRight=4;overflow=hidden;rotatable=0;points=[[0,0.5],[1,0.5]];portConstraint=eastwest;fontSize=12;whiteSpace=wrap;html=1;" vertex="1" parent="LsekQW_vribpUlGZje28-21">
          <mxGeometry y="126" width="230" height="30" as="geometry" />
        </mxCell>
        <mxCell id="LsekQW_vribpUlGZje28-41" value="&lt;i&gt;dni_cliente: texto (FK)&lt;/i&gt;" style="text;strokeColor=none;fillColor=none;spacingLeft=4;spacingRight=4;overflow=hidden;rotatable=0;points=[[0,0.5],[1,0.5]];portConstraint=eastwest;fontSize=12;whiteSpace=wrap;html=1;" vertex="1" parent="LsekQW_vribpUlGZje28-21">
          <mxGeometry y="156" width="230" height="30" as="geometry" />
        </mxCell>
        <mxCell id="LsekQW_vribpUlGZje28-35" value="COCHES" style="swimlane;fontStyle=0;childLayout=stackLayout;horizontal=1;startSize=26;horizontalStack=0;resizeParent=1;resizeParentMax=0;resizeLast=0;collapsible=1;marginBottom=0;align=center;fontSize=14;" vertex="1" parent="1">
          <mxGeometry x="50" y="330" width="230" height="216" as="geometry" />
        </mxCell>
        <mxCell id="LsekQW_vribpUlGZje28-36" value="&lt;b&gt;matricula: texto (PK)&lt;/b&gt;" style="text;strokeColor=none;fillColor=none;spacingLeft=4;spacingRight=4;overflow=hidden;rotatable=0;points=[[0,0.5],[1,0.5]];portConstraint=eastwest;fontSize=12;whiteSpace=wrap;html=1;" vertex="1" parent="LsekQW_vribpUlGZje28-35">
          <mxGeometry y="26" width="230" height="30" as="geometry" />
        </mxCell>
        <mxCell id="LsekQW_vribpUlGZje28-37" value="" style="line;strokeWidth=1;rotatable=0;dashed=0;labelPosition=right;align=left;verticalAlign=middle;spacingTop=0;spacingLeft=6;points=[];portConstraint=eastwest;" vertex="1" parent="LsekQW_vribpUlGZje28-35">
          <mxGeometry y="56" width="230" height="10" as="geometry" />
        </mxCell>
        <mxCell id="LsekQW_vribpUlGZje28-38" value="precio: num (NN)" style="text;strokeColor=none;fillColor=none;spacingLeft=4;spacingRight=4;overflow=hidden;rotatable=0;points=[[0,0.5],[1,0.5]];portConstraint=eastwest;fontSize=12;whiteSpace=wrap;html=1;" vertex="1" parent="LsekQW_vribpUlGZje28-35">
          <mxGeometry y="66" width="230" height="30" as="geometry" />
        </mxCell>
        <mxCell id="LsekQW_vribpUlGZje28-39" value="fianza: num (NN)" style="text;strokeColor=none;fillColor=none;spacingLeft=4;spacingRight=4;overflow=hidden;rotatable=0;points=[[0,0.5],[1,0.5]];portConstraint=eastwest;fontSize=12;whiteSpace=wrap;html=1;" vertex="1" parent="LsekQW_vribpUlGZje28-35">
          <mxGeometry y="96" width="230" height="30" as="geometry" />
        </mxCell>
        <mxCell id="LsekQW_vribpUlGZje28-40" value="fecha: date (NN)" style="text;strokeColor=none;fillColor=none;spacingLeft=4;spacingRight=4;overflow=hidden;rotatable=0;points=[[0,0.5],[1,0.5]];portConstraint=eastwest;fontSize=12;whiteSpace=wrap;html=1;" vertex="1" parent="LsekQW_vribpUlGZje28-35">
          <mxGeometry y="126" width="230" height="30" as="geometry" />
        </mxCell>
        <mxCell id="LsekQW_vribpUlGZje28-46" value="&lt;i&gt;cod_reserva: num (FK, NN)&lt;/i&gt;" style="text;strokeColor=none;fillColor=none;spacingLeft=4;spacingRight=4;overflow=hidden;rotatable=0;points=[[0,0.5],[1,0.5]];portConstraint=eastwest;fontSize=12;whiteSpace=wrap;html=1;" vertex="1" parent="LsekQW_vribpUlGZje28-35">
          <mxGeometry y="156" width="230" height="30" as="geometry" />
        </mxCell>
        <mxCell id="LsekQW_vribpUlGZje28-55" value="&lt;i&gt;cod_agencia: num (FK, NN)&lt;/i&gt;" style="text;strokeColor=none;fillColor=none;spacingLeft=4;spacingRight=4;overflow=hidden;rotatable=0;points=[[0,0.5],[1,0.5]];portConstraint=eastwest;fontSize=12;whiteSpace=wrap;html=1;" vertex="1" parent="LsekQW_vribpUlGZje28-35">
          <mxGeometry y="186" width="230" height="30" as="geometry" />
        </mxCell>
        <mxCell id="LsekQW_vribpUlGZje28-45" style="edgeStyle=orthogonalEdgeStyle;rounded=1;orthogonalLoop=1;jettySize=auto;html=1;entryX=1;entryY=0.5;entryDx=0;entryDy=0;curved=0;" edge="1" parent="1" source="LsekQW_vribpUlGZje28-41" target="LsekQW_vribpUlGZje28-15">
          <mxGeometry relative="1" as="geometry" />
        </mxCell>
        <mxCell id="LsekQW_vribpUlGZje28-47" style="edgeStyle=orthogonalEdgeStyle;rounded=1;orthogonalLoop=1;jettySize=auto;html=1;entryX=1;entryY=0.5;entryDx=0;entryDy=0;curved=0;exitX=0;exitY=0.5;exitDx=0;exitDy=0;" edge="1" parent="1" source="LsekQW_vribpUlGZje28-46" target="LsekQW_vribpUlGZje28-22">
          <mxGeometry relative="1" as="geometry">
            <Array as="points">
              <mxPoint x="30" y="501" />
              <mxPoint x="30" y="310" />
              <mxPoint x="605" y="310" />
              <mxPoint x="605" y="141" />
            </Array>
          </mxGeometry>
        </mxCell>
        <mxCell id="LsekQW_vribpUlGZje28-48" value="AGENCIAS" style="swimlane;fontStyle=0;childLayout=stackLayout;horizontal=1;startSize=26;horizontalStack=0;resizeParent=1;resizeParentMax=0;resizeLast=0;collapsible=1;marginBottom=0;align=center;fontSize=14;" vertex="1" parent="1">
          <mxGeometry x="50" y="590" width="230" height="126" as="geometry" />
        </mxCell>
        <mxCell id="LsekQW_vribpUlGZje28-49" value="&lt;b&gt;codigo_agencia: num (PK)&lt;/b&gt;" style="text;strokeColor=none;fillColor=none;spacingLeft=4;spacingRight=4;overflow=hidden;rotatable=0;points=[[0,0.5],[1,0.5]];portConstraint=eastwest;fontSize=12;whiteSpace=wrap;html=1;" vertex="1" parent="LsekQW_vribpUlGZje28-48">
          <mxGeometry y="26" width="230" height="30" as="geometry" />
        </mxCell>
        <mxCell id="LsekQW_vribpUlGZje28-50" value="" style="line;strokeWidth=1;rotatable=0;dashed=0;labelPosition=right;align=left;verticalAlign=middle;spacingTop=0;spacingLeft=6;points=[];portConstraint=eastwest;" vertex="1" parent="LsekQW_vribpUlGZje28-48">
          <mxGeometry y="56" width="230" height="10" as="geometry" />
        </mxCell>
        <mxCell id="LsekQW_vribpUlGZje28-51" value="provincia: texto (NN)" style="text;strokeColor=none;fillColor=none;spacingLeft=4;spacingRight=4;overflow=hidden;rotatable=0;points=[[0,0.5],[1,0.5]];portConstraint=eastwest;fontSize=12;whiteSpace=wrap;html=1;" vertex="1" parent="LsekQW_vribpUlGZje28-48">
          <mxGeometry y="66" width="230" height="30" as="geometry" />
        </mxCell>
        <mxCell id="LsekQW_vribpUlGZje28-52" value="direccion: texto (NN)" style="text;strokeColor=none;fillColor=none;spacingLeft=4;spacingRight=4;overflow=hidden;rotatable=0;points=[[0,0.5],[1,0.5]];portConstraint=eastwest;fontSize=12;whiteSpace=wrap;html=1;" vertex="1" parent="LsekQW_vribpUlGZje28-48">
          <mxGeometry y="96" width="230" height="30" as="geometry" />
        </mxCell>
        <mxCell id="LsekQW_vribpUlGZje28-56" style="edgeStyle=orthogonalEdgeStyle;rounded=1;orthogonalLoop=1;jettySize=auto;html=1;entryX=0;entryY=0.5;entryDx=0;entryDy=0;exitX=0;exitY=0.5;exitDx=0;exitDy=0;curved=0;" edge="1" parent="1" source="LsekQW_vribpUlGZje28-55" target="LsekQW_vribpUlGZje28-49">
          <mxGeometry relative="1" as="geometry" />
        </mxCell>
        <mxCell id="LsekQW_vribpUlGZje28-59" value="GARAJES" style="swimlane;fontStyle=0;childLayout=stackLayout;horizontal=1;startSize=26;horizontalStack=0;resizeParent=1;resizeParentMax=0;resizeLast=0;collapsible=1;marginBottom=0;align=center;fontSize=14;" vertex="1" parent="1">
          <mxGeometry x="640" y="390" width="230" height="96" as="geometry" />
        </mxCell>
        <mxCell id="LsekQW_vribpUlGZje28-60" value="&lt;b&gt;codigo_garaje: num (PK)&lt;/b&gt;" style="text;strokeColor=none;fillColor=none;spacingLeft=4;spacingRight=4;overflow=hidden;rotatable=0;points=[[0,0.5],[1,0.5]];portConstraint=eastwest;fontSize=12;whiteSpace=wrap;html=1;" vertex="1" parent="LsekQW_vribpUlGZje28-59">
          <mxGeometry y="26" width="230" height="30" as="geometry" />
        </mxCell>
        <mxCell id="LsekQW_vribpUlGZje28-61" value="" style="line;strokeWidth=1;rotatable=0;dashed=0;labelPosition=right;align=left;verticalAlign=middle;spacingTop=0;spacingLeft=6;points=[];portConstraint=eastwest;" vertex="1" parent="LsekQW_vribpUlGZje28-59">
          <mxGeometry y="56" width="230" height="10" as="geometry" />
        </mxCell>
        <mxCell id="LsekQW_vribpUlGZje28-62" value="numero_plazas: num (NN)" style="text;strokeColor=none;fillColor=none;spacingLeft=4;spacingRight=4;overflow=hidden;rotatable=0;points=[[0,0.5],[1,0.5]];portConstraint=eastwest;fontSize=12;whiteSpace=wrap;html=1;" vertex="1" parent="LsekQW_vribpUlGZje28-59">
          <mxGeometry y="66" width="230" height="30" as="geometry" />
        </mxCell>
        <mxCell id="LsekQW_vribpUlGZje28-64" value="COCHE_GARAJE" style="swimlane;fontStyle=0;childLayout=stackLayout;horizontal=1;startSize=26;horizontalStack=0;resizeParent=1;resizeParentMax=0;resizeLast=0;collapsible=1;marginBottom=0;align=center;fontSize=14;" vertex="1" parent="1">
          <mxGeometry x="350" y="375" width="230" height="126" as="geometry" />
        </mxCell>
        <mxCell id="LsekQW_vribpUlGZje28-91" value="&lt;b&gt;codigo_aparcado: num (PK)&lt;/b&gt;" style="text;strokeColor=none;fillColor=none;spacingLeft=4;spacingRight=4;overflow=hidden;rotatable=0;points=[[0,0.5],[1,0.5]];portConstraint=eastwest;fontSize=12;whiteSpace=wrap;html=1;" vertex="1" parent="LsekQW_vribpUlGZje28-64">
          <mxGeometry y="26" width="230" height="30" as="geometry" />
        </mxCell>
        <mxCell id="LsekQW_vribpUlGZje28-90" value="" style="line;strokeWidth=1;rotatable=0;dashed=0;labelPosition=right;align=left;verticalAlign=middle;spacingTop=0;spacingLeft=6;points=[];portConstraint=eastwest;" vertex="1" parent="LsekQW_vribpUlGZje28-64">
          <mxGeometry y="56" width="230" height="10" as="geometry" />
        </mxCell>
        <mxCell id="LsekQW_vribpUlGZje28-65" value="&lt;i style=&quot;&quot;&gt;codigo_coche: num ( FK1)&lt;/i&gt;" style="text;strokeColor=none;fillColor=none;spacingLeft=4;spacingRight=4;overflow=hidden;rotatable=0;points=[[0,0.5],[1,0.5]];portConstraint=eastwest;fontSize=12;whiteSpace=wrap;html=1;" vertex="1" parent="LsekQW_vribpUlGZje28-64">
          <mxGeometry y="66" width="230" height="30" as="geometry" />
        </mxCell>
        <mxCell id="LsekQW_vribpUlGZje28-68" value="&lt;i style=&quot;&quot;&gt;codigo_garaje: num (FK2)&lt;/i&gt;" style="text;strokeColor=none;fillColor=none;spacingLeft=4;spacingRight=4;overflow=hidden;rotatable=0;points=[[0,0.5],[1,0.5]];portConstraint=eastwest;fontSize=12;whiteSpace=wrap;html=1;" vertex="1" parent="LsekQW_vribpUlGZje28-64">
          <mxGeometry y="96" width="230" height="30" as="geometry" />
        </mxCell>
        <mxCell id="LsekQW_vribpUlGZje28-69" style="edgeStyle=orthogonalEdgeStyle;shape=connector;curved=0;rounded=1;orthogonalLoop=1;jettySize=auto;html=1;entryX=1;entryY=0.5;entryDx=0;entryDy=0;strokeColor=default;align=center;verticalAlign=middle;fontFamily=Helvetica;fontSize=11;fontColor=default;labelBackgroundColor=default;endArrow=classic;" edge="1" parent="1" source="LsekQW_vribpUlGZje28-65" target="LsekQW_vribpUlGZje28-36">
          <mxGeometry relative="1" as="geometry" />
        </mxCell>
        <mxCell id="LsekQW_vribpUlGZje28-70" style="edgeStyle=orthogonalEdgeStyle;shape=connector;curved=0;rounded=1;orthogonalLoop=1;jettySize=auto;html=1;exitX=1;exitY=0.5;exitDx=0;exitDy=0;entryX=0;entryY=0.5;entryDx=0;entryDy=0;strokeColor=default;align=center;verticalAlign=middle;fontFamily=Helvetica;fontSize=11;fontColor=default;labelBackgroundColor=default;endArrow=classic;" edge="1" parent="1" source="LsekQW_vribpUlGZje28-68" target="LsekQW_vribpUlGZje28-60">
          <mxGeometry relative="1" as="geometry" />
        </mxCell>
        <mxCell id="LsekQW_vribpUlGZje28-71" value="EMPLEADOS" style="swimlane;fontStyle=0;childLayout=stackLayout;horizontal=1;startSize=26;horizontalStack=0;resizeParent=1;resizeParentMax=0;resizeLast=0;collapsible=1;marginBottom=0;align=center;fontSize=14;" vertex="1" parent="1">
          <mxGeometry x="650" y="590" width="230" height="126" as="geometry" />
        </mxCell>
        <mxCell id="LsekQW_vribpUlGZje28-72" value="&lt;b&gt;dni_empleado: texto (PK)&lt;/b&gt;" style="text;strokeColor=none;fillColor=none;spacingLeft=4;spacingRight=4;overflow=hidden;rotatable=0;points=[[0,0.5],[1,0.5]];portConstraint=eastwest;fontSize=12;whiteSpace=wrap;html=1;" vertex="1" parent="LsekQW_vribpUlGZje28-71">
          <mxGeometry y="26" width="230" height="30" as="geometry" />
        </mxCell>
        <mxCell id="LsekQW_vribpUlGZje28-73" value="" style="line;strokeWidth=1;rotatable=0;dashed=0;labelPosition=right;align=left;verticalAlign=middle;spacingTop=0;spacingLeft=6;points=[];portConstraint=eastwest;" vertex="1" parent="LsekQW_vribpUlGZje28-71">
          <mxGeometry y="56" width="230" height="10" as="geometry" />
        </mxCell>
        <mxCell id="LsekQW_vribpUlGZje28-74" value="nombre: texto (NN)" style="text;strokeColor=none;fillColor=none;spacingLeft=4;spacingRight=4;overflow=hidden;rotatable=0;points=[[0,0.5],[1,0.5]];portConstraint=eastwest;fontSize=12;whiteSpace=wrap;html=1;" vertex="1" parent="LsekQW_vribpUlGZje28-71">
          <mxGeometry y="66" width="230" height="30" as="geometry" />
        </mxCell>
        <mxCell id="LsekQW_vribpUlGZje28-75" value="sueldo: num (NN)" style="text;strokeColor=none;fillColor=none;spacingLeft=4;spacingRight=4;overflow=hidden;rotatable=0;points=[[0,0.5],[1,0.5]];portConstraint=eastwest;fontSize=12;whiteSpace=wrap;html=1;" vertex="1" parent="LsekQW_vribpUlGZje28-71">
          <mxGeometry y="96" width="230" height="30" as="geometry" />
        </mxCell>
        <mxCell id="LsekQW_vribpUlGZje28-81" value="AGENCIA_EMPLEADO" style="swimlane;fontStyle=0;childLayout=stackLayout;horizontal=1;startSize=26;horizontalStack=0;resizeParent=1;resizeParentMax=0;resizeLast=0;collapsible=1;marginBottom=0;align=center;fontSize=14;" vertex="1" parent="1">
          <mxGeometry x="350" y="560" width="230" height="186" as="geometry" />
        </mxCell>
        <mxCell id="LsekQW_vribpUlGZje28-82" value="&lt;b&gt;&lt;i&gt;codigo_agencia: num (PK, FK1)&lt;/i&gt;&lt;/b&gt;" style="text;strokeColor=none;fillColor=none;spacingLeft=4;spacingRight=4;overflow=hidden;rotatable=0;points=[[0,0.5],[1,0.5]];portConstraint=eastwest;fontSize=12;whiteSpace=wrap;html=1;" vertex="1" parent="LsekQW_vribpUlGZje28-81">
          <mxGeometry y="26" width="230" height="30" as="geometry" />
        </mxCell>
        <mxCell id="LsekQW_vribpUlGZje28-83" value="&lt;b&gt;&lt;i&gt;codigo_empleado: texto(PK, FK2)&lt;/i&gt;&lt;/b&gt;" style="text;strokeColor=none;fillColor=none;spacingLeft=4;spacingRight=4;overflow=hidden;rotatable=0;points=[[0,0.5],[1,0.5]];portConstraint=eastwest;fontSize=12;whiteSpace=wrap;html=1;" vertex="1" parent="LsekQW_vribpUlGZje28-81">
          <mxGeometry y="56" width="230" height="30" as="geometry" />
        </mxCell>
        <mxCell id="LsekQW_vribpUlGZje28-84" value="" style="line;strokeWidth=1;rotatable=0;dashed=0;labelPosition=right;align=left;verticalAlign=middle;spacingTop=0;spacingLeft=6;points=[];portConstraint=eastwest;" vertex="1" parent="LsekQW_vribpUlGZje28-81">
          <mxGeometry y="86" width="230" height="10" as="geometry" />
        </mxCell>
        <mxCell id="LsekQW_vribpUlGZje28-85" value="puesto: texto (NN)&lt;div&gt;&lt;br&gt;&lt;/div&gt;" style="text;strokeColor=none;fillColor=none;spacingLeft=4;spacingRight=4;overflow=hidden;rotatable=0;points=[[0,0.5],[1,0.5]];portConstraint=eastwest;fontSize=12;whiteSpace=wrap;html=1;" vertex="1" parent="LsekQW_vribpUlGZje28-81">
          <mxGeometry y="96" width="230" height="30" as="geometry" />
        </mxCell>
        <mxCell id="LsekQW_vribpUlGZje28-86" value="fecha_inicio: date (NN)" style="text;strokeColor=none;fillColor=none;spacingLeft=4;spacingRight=4;overflow=hidden;rotatable=0;points=[[0,0.5],[1,0.5]];portConstraint=eastwest;fontSize=12;whiteSpace=wrap;html=1;" vertex="1" parent="LsekQW_vribpUlGZje28-81">
          <mxGeometry y="126" width="230" height="30" as="geometry" />
        </mxCell>
        <mxCell id="LsekQW_vribpUlGZje28-87" value="fecha_fin: date" style="text;strokeColor=none;fillColor=none;spacingLeft=4;spacingRight=4;overflow=hidden;rotatable=0;points=[[0,0.5],[1,0.5]];portConstraint=eastwest;fontSize=12;whiteSpace=wrap;html=1;" vertex="1" parent="LsekQW_vribpUlGZje28-81">
          <mxGeometry y="156" width="230" height="30" as="geometry" />
        </mxCell>
        <mxCell id="LsekQW_vribpUlGZje28-88" style="edgeStyle=orthogonalEdgeStyle;shape=connector;curved=0;rounded=1;orthogonalLoop=1;jettySize=auto;html=1;exitX=0;exitY=0.5;exitDx=0;exitDy=0;entryX=1;entryY=0.5;entryDx=0;entryDy=0;strokeColor=default;align=center;verticalAlign=middle;fontFamily=Helvetica;fontSize=11;fontColor=default;labelBackgroundColor=default;endArrow=classic;" edge="1" parent="1" source="LsekQW_vribpUlGZje28-82" target="LsekQW_vribpUlGZje28-49">
          <mxGeometry relative="1" as="geometry" />
        </mxCell>
        <mxCell id="LsekQW_vribpUlGZje28-89" style="edgeStyle=orthogonalEdgeStyle;shape=connector;curved=0;rounded=1;orthogonalLoop=1;jettySize=auto;html=1;exitX=1;exitY=0.5;exitDx=0;exitDy=0;entryX=0;entryY=0.5;entryDx=0;entryDy=0;strokeColor=default;align=center;verticalAlign=middle;fontFamily=Helvetica;fontSize=11;fontColor=default;labelBackgroundColor=default;endArrow=classic;" edge="1" parent="1" source="LsekQW_vribpUlGZje28-83" target="LsekQW_vribpUlGZje28-72">
          <mxGeometry relative="1" as="geometry" />
        </mxCell>
      </root>
    </mxGraphModel>
  </diagram>
</mxfile>
